<svg width="400" height="400" viewBox="0 0 400 400" fill="none" xmlns="http://www.w3.org/2000/svg">
<rect width="400" height="400" rx="200" fill="#2D603A"/>
<path d="M287.821 250.674L248.326 199.911H268.658C269.941 199.911 271.198 199.552 272.287 198.873C273.377 198.195 274.254 197.225 274.821 196.073C275.387 194.922 275.62 193.634 275.493 192.357C275.366 191.079 274.884 189.863 274.101 188.846L205.413 99.5021C204.772 98.668 203.947 97.9924 203.003 97.5275C202.06 97.0627 201.022 96.8209 199.97 96.8209C198.918 96.8209 197.88 97.0627 196.936 97.5275C195.992 97.9924 195.168 98.668 194.526 99.5021L125.839 188.846C125.056 189.863 124.574 191.079 124.447 192.357C124.319 193.634 124.552 194.922 125.119 196.073C125.685 197.225 126.563 198.195 127.652 198.873C128.742 199.552 129.999 199.911 131.282 199.911H151.579L112.084 250.674C111.293 251.692 110.804 252.912 110.673 254.195C110.543 255.478 110.775 256.772 111.345 257.929C111.915 259.086 112.798 260.059 113.894 260.737C114.991 261.416 116.256 261.771 117.545 261.764H193.101V296.127C193.101 297.95 193.825 299.698 195.113 300.987C196.401 302.276 198.148 303 199.97 303C201.792 303 203.539 302.276 204.827 300.987C206.115 299.698 206.839 297.95 206.839 296.127V261.764H282.395C283.681 261.765 284.941 261.404 286.033 260.724C287.124 260.043 288.002 259.069 288.568 257.914C289.133 256.758 289.363 255.467 289.231 254.187C289.099 252.907 288.611 251.69 287.821 250.674ZM131.591 248.019L171.087 197.256C171.878 196.238 172.367 195.018 172.497 193.735C172.628 192.452 172.395 191.158 171.825 190.001C171.256 188.844 170.372 187.871 169.276 187.193C168.18 186.514 166.915 186.159 165.626 186.166H145.234L199.97 114.965L254.705 186.166H234.314C233.028 186.167 231.769 186.528 230.679 187.21C229.589 187.891 228.712 188.865 228.148 190.02C227.583 191.176 227.354 192.466 227.487 193.746C227.619 195.025 228.107 196.241 228.896 197.256L268.348 248.019H131.591Z" fill="white"/>
<path d="M197.731 106.597L139.965 185.691L160.85 199.022L122.635 253.677H277.714L237.722 192.801H265.717L197.731 106.597Z" fill="white"/>
</svg>
